# xmcd
# Track frame offsets:
# 150
# 10691
# 23360
# 36997
# 56781
# 74881
# 86717
# 98559
# 112681
# 128598
# 142773
# 158175
# 170350
# 183297
#
# Disc length: 2617 seconds
# Revision: 0
# Processed by: cddbd v1.5.2PL0 Copyright (c) Steve Scherf et al.
# Submitted via: VisiTrax 2.11.1.266 - For more info visit www.synapsa.com
#
DISCID=a80a370e
DTITLE=Patty Loveless - Sleepless Nights
DYEAR=2008
DGENRE=
TTITLE0=Patty Loveless - Why Baby Why
TTITLE1=Patty Loveless - The Pain Of Loving You
TTITLE2=Patty Loveless - He Thinks I Still Care
TTITLE3=Patty Loveless(with Vince Gill) - Sleepless Nights
TTITLE4=Patty Loveless(with Jedd Hughes) - Crazy Arms
TTITLE5=Patty Loveless - There Stands The Glass
TTITLE6=Patty Loveless - That`s All It Took
TTITLE7=Patty Loveless - Color Of The Blues
TTITLE8=Patty Loveless - I Forget More Than You´ll Ever Know
TTITLE9=Patty Loveless - Nest In Line
TTITLE10=Patty Loveless - Don´t Let Me Cross Over
TTITLE11=Patty Loveless - Please Help Me I´m Falling
TTITLE12=Patty Loveless - There Goes My Everything
TTITLE13=Patty Loveless - Cold,Cold Heart
EXTD=
EXTT0=
EXTT1=
EXTT2=
EXTT3=
EXTT4=
EXTT5=
EXTT6=
EXTT7=
EXTT8=
EXTT9=
EXTT10=
EXTT11=
EXTT12=
EXTT13=
PLAYORDER=
